<?xml version="1.0" encoding="utf-8"?>
<!-- Generator: Adobe Illustrator 27.2.0, SVG Export Plug-In . SVG Version: 6.00 Build 0)  -->
<svg version="1.1" id="Vrstva_1" xmlns="http://www.w3.org/2000/svg" xmlns:xlink="http://www.w3.org/1999/xlink" x="0px" y="0px"
	 viewBox="0 0 400 400" style="enable-background:new 0 0 400 400;" xml:space="preserve">
<style type="text/css">
	.st0{stroke:#000000;stroke-width:0.75;stroke-miterlimit:10;}
</style>
<path class="st0" d="M323.4,397.4h-12.6c-0.6,0-1.1-0.5-1.1-1.1v-12.7c0-0.6,0.5-1.1,1.1-1.1h12.6c0.6,0,1.1,0.5,1.1,1.1v12.7
	C324.6,396.9,324,397.4,323.4,397.4z M288.8,397.4h-12.6c-0.6,0-1.1-0.5-1.1-1.1v-12.7c0-0.6,0.5-1.1,1.1-1.1h12.6
	c0.6,0,1.1,0.5,1.1,1.1v12.7C289.9,396.9,289.4,397.4,288.8,397.4z M254.1,397.4h-12.6c-0.6,0-1.1-0.5-1.1-1.1v-12.7
	c0-0.6,0.5-1.1,1.1-1.1h12.6c0.6,0,1.1,0.5,1.1,1.1v12.7C255.2,396.9,254.7,397.4,254.1,397.4z M219.4,397.4h-12.6
	c-0.6,0-1.1-0.5-1.1-1.1v-12.7c0-0.6,0.5-1.1,1.1-1.1h12.6c0.6,0,1.1,0.5,1.1,1.1v12.7C220.6,396.9,220.1,397.4,219.4,397.4z
	 M184.8,397.4h-12.6c-0.6,0-1.1-0.5-1.1-1.1v-12.7c0-0.6,0.5-1.1,1.1-1.1h12.6c0.6,0,1.1,0.5,1.1,1.1v12.7
	C185.9,396.9,185.4,397.4,184.8,397.4z M150.1,397.4h-12.6c-0.6,0-1.1-0.5-1.1-1.1v-12.7c0-0.6,0.5-1.1,1.1-1.1h12.6
	c0.6,0,1.1,0.5,1.1,1.1v12.7C151.2,396.9,150.7,397.4,150.1,397.4z M115.4,397.4h-12.6c-0.6,0-1.1-0.5-1.1-1.1v-12.7
	c0-0.6,0.5-1.1,1.1-1.1h12.6c0.6,0,1.1,0.5,1.1,1.1v12.7C116.6,396.9,116.1,397.4,115.4,397.4z M80.8,397.4l-12.8,0
	c-0.6,0-1.1-0.5-1.1-1.1v-13.9l0.3,0l13.6,0c0.6,0,1.1,0.5,1.1,1.1v12.7C81.9,396.9,81.4,397.4,80.8,397.4z M345.5,395l-2.5-12.5
	c-0.1-0.6,0.3-1.2,0.9-1.3c3.5-0.8,6.8-1.9,10.1-3.5c0.6-0.3,1.2,0,1.5,0.5l5.7,11.4c0.3,0.6,0,1.3-0.5,1.5c-4.4,2.1-9,3.7-13.7,4.7
	C346.3,396,345.7,395.6,345.5,395z M43.8,393c-4.5-1.7-8.8-4-12.8-6.7c-0.5-0.4-0.6-1.1-0.3-1.6l7.3-10.4c0.4-0.5,1-0.6,1.6-0.3
	c3,2,6.1,3.6,9.4,4.9c0.6,0.2,0.9,0.9,0.7,1.4l-4.4,12C45,393,44.4,393.3,43.8,393z M378.7,376.6l-9.2-8.8c-0.4-0.4-0.5-1.1,0-1.6
	c2.4-2.6,4.5-5.5,6.3-8.6c0.3-0.5,1-0.7,1.5-0.4l11.2,6.1c0.6,0.3,0.8,1,0.4,1.6c-2.4,4.2-5.3,8.1-8.5,11.7
	C379.9,377,379.2,377.1,378.7,376.6z M13.6,368.9c-2.7-4-5-8.3-6.7-12.8c-0.2-0.6,0.1-1.3,0.7-1.5l12-4.4c0.6-0.2,1.2,0.1,1.4,0.7
	c1.3,3.3,2.9,6.5,4.9,9.4c0.3,0.5,0.2,1.2-0.3,1.6l-10.4,7.3C14.7,369.6,14,369.5,13.6,368.9z M395.5,342.6l-12.6-1.9
	c-0.6-0.1-1-0.7-0.9-1.3c0.3-2.1,0.4-4.3,0.4-6.5v-5c0-0.6,0.5-1.1,1.1-1.1h12.7c0.6,0,1.1,0.5,1.1,1.1v5c0,2.9-0.2,5.8-0.6,8.7
	C396.7,342.3,396.1,342.7,395.5,342.6z M16.5,333H3.8c-0.6,0-1.1-0.5-1.1-1.1v-12.6c0-0.6,0.5-1.1,1.1-1.1h12.7
	c0.6,0,1.1,0.5,1.1,1.1v12.6C17.6,332.5,17.1,333,16.5,333z M396.2,307h-12.7c-0.6,0-1.1-0.5-1.1-1.1v-12.6c0-0.6,0.5-1.1,1.1-1.1
	h12.7c0.6,0,1.1,0.5,1.1,1.1v12.6C397.4,306.5,396.9,307,396.2,307z M16.5,298.4H3.8c-0.6,0-1.1-0.5-1.1-1.1v-12.6
	c0-0.6,0.5-1.1,1.1-1.1h12.7c0.6,0,1.1,0.5,1.1,1.1v12.6C17.6,297.9,17.1,298.4,16.5,298.4z M396.2,272.3h-12.7
	c-0.6,0-1.1-0.5-1.1-1.1v-12.6c0-0.6,0.5-1.1,1.1-1.1h12.7c0.6,0,1.1,0.5,1.1,1.1v12.6C397.4,271.8,396.9,272.3,396.2,272.3z
	 M16.5,263.7H3.8c-0.6,0-1.1-0.5-1.1-1.1V250c0-0.6,0.5-1.1,1.1-1.1h12.7c0.6,0,1.1,0.5,1.1,1.1v12.6
	C17.6,263.2,17.1,263.7,16.5,263.7z M396.2,237.7h-12.7c-0.6,0-1.1-0.5-1.1-1.1V224c0-0.6,0.5-1.1,1.1-1.1h12.7
	c0.6,0,1.1,0.5,1.1,1.1v12.6C397.4,237.2,396.9,237.7,396.2,237.7z M16.5,229.1H3.8c-0.6,0-1.1-0.5-1.1-1.1v-12.6
	c0-0.6,0.5-1.1,1.1-1.1h12.7c0.6,0,1.1,0.5,1.1,1.1v12.6C17.6,228.5,17.1,229.1,16.5,229.1z M396.2,203h-12.7
	c-0.6,0-1.1-0.5-1.1-1.1v-12.6c0-0.6,0.5-1.1,1.1-1.1h12.7c0.6,0,1.1,0.5,1.1,1.1v12.6C397.4,202.5,396.9,203,396.2,203z
	 M16.5,194.4H3.8c-0.6,0-1.1-0.5-1.1-1.1v-12.6c0-0.6,0.5-1.1,1.1-1.1h12.7c0.6,0,1.1,0.5,1.1,1.1v12.6
	C17.6,193.9,17.1,194.4,16.5,194.4z M396.2,168.3h-12.7c-0.6,0-1.1-0.5-1.1-1.1v-12.6c0-0.6,0.5-1.1,1.1-1.1h12.7
	c0.6,0,1.1,0.5,1.1,1.1v12.6C397.4,167.8,396.9,168.3,396.2,168.3z M16.5,159.7H3.8c-0.6,0-1.1-0.5-1.1-1.1V146
	c0-0.6,0.5-1.1,1.1-1.1h12.7c0.6,0,1.1,0.5,1.1,1.1v12.6C17.6,159.2,17.1,159.7,16.5,159.7z M396.2,133.7h-12.7
	c-0.6,0-1.1-0.5-1.1-1.1V120c0-0.6,0.5-1.1,1.1-1.1h12.7c0.6,0,1.1,0.5,1.1,1.1v12.6C397.4,133.2,396.9,133.7,396.2,133.7z
	 M16.5,125.1H3.8c-0.6,0-1.1-0.5-1.1-1.1v-12.6c0-0.6,0.5-1.1,1.1-1.1h12.7c0.6,0,1.1,0.5,1.1,1.1v12.6
	C17.6,124.6,17.1,125.1,16.5,125.1z M396.2,99h-12.7c-0.6,0-1.1-0.5-1.1-1.1V85.3c0-0.6,0.5-1.1,1.1-1.1h12.7c0.6,0,1.1,0.5,1.1,1.1
	v12.6C397.4,98.5,396.9,99,396.2,99z M16.5,90.4H3.8c-0.6,0-1.1-0.5-1.1-1.1V76.7c0-0.6,0.5-1.1,1.1-1.1h12.7c0.6,0,1.1,0.5,1.1,1.1
	v12.6C17.6,89.9,17.1,90.4,16.5,90.4z M382.3,63.6c-0.2-3.6-0.9-7.1-1.9-10.5c-0.2-0.6,0.1-1.2,0.7-1.4l12.1-3.9
	c0.6-0.2,1.3,0.1,1.4,0.8c1.4,4.6,2.2,9.4,2.5,14.2c0,0.6-0.5,1.2-1.1,1.2l-12.7,0.6C382.8,64.7,382.3,64.2,382.3,63.6z M17.5,57.1
	L5,54.6c-0.6-0.1-1-0.7-0.9-1.4c1-4.7,2.6-9.3,4.7-13.7c0.3-0.6,1-0.8,1.5-0.5l11.4,5.7c0.6,0.3,0.8,0.9,0.5,1.5
	c-1.5,3.2-2.7,6.6-3.4,10.1C18.7,56.8,18.1,57.2,17.5,57.1z M371.4,36c-2.2-2.8-4.8-5.3-7.5-7.5c-0.5-0.4-0.6-1.1-0.2-1.6l7.8-10.1
	c0.4-0.5,1.1-0.6,1.6-0.2c3.8,3,7.2,6.4,10.2,10.2c0.4,0.5,0.3,1.2-0.2,1.6L373,36.2C372.5,36.6,371.8,36.5,371.4,36z M32.1,30.5
	l-8.8-9.2c-0.4-0.5-0.4-1.2,0-1.6c3.6-3.3,7.5-6.2,11.7-8.6c0.5-0.3,1.3-0.1,1.6,0.4l6.1,11.2c0.3,0.5,0.1,1.2-0.4,1.5
	c-3.1,1.8-6,3.9-8.6,6.3C33.2,31,32.5,31,32.1,30.5z M346.8,19.6c-3.4-1-6.9-1.6-10.5-1.9c-0.6,0-1.1-0.6-1.1-1.2l0.6-12.7
	c0-0.6,0.6-1.1,1.2-1.1c4.8,0.3,9.6,1.1,14.3,2.5c0.6,0.2,0.9,0.8,0.8,1.4l-3.8,12.1C348,19.4,347.4,19.8,346.8,19.6z M59,15.5
	l-1.7-11c-0.1-0.6,0.3-1.2,1-1.3c2.9-0.4,5.9-0.6,8.8-0.6H72c0.6,0,1.1,0.5,1.1,1.1v12.7c0,0.6-0.5,1.1-1.1,1.1l-8.8,0
	c-0.1,0-0.3,0-0.4,0.1C61,18.3,59.3,17.2,59,15.5z M314.6,17.6H302c-0.6,0-1.1-0.5-1.1-1.1V3.8c0-0.6,0.5-1.1,1.1-1.1h12.6
	c0.6,0,1.1,0.5,1.1,1.1v12.7C315.7,17.1,315.2,17.6,314.6,17.6z M279.9,17.6h-12.6c-0.6,0-1.1-0.5-1.1-1.1V3.8
	c0-0.6,0.5-1.1,1.1-1.1h12.6c0.6,0,1.1,0.5,1.1,1.1v12.7C281.1,17.1,280.6,17.6,279.9,17.6z M245.3,17.6h-12.6
	c-0.6,0-1.1-0.5-1.1-1.1V3.8c0-0.6,0.5-1.1,1.1-1.1h12.6c0.6,0,1.1,0.5,1.1,1.1v12.7C246.4,17.1,245.9,17.6,245.3,17.6z M210.6,17.6
	H198c-0.6,0-1.1-0.5-1.1-1.1V3.8c0-0.6,0.5-1.1,1.1-1.1h12.6c0.6,0,1.1,0.5,1.1,1.1v12.7C211.7,17.1,211.2,17.6,210.6,17.6z
	 M175.9,17.6h-12.6c-0.6,0-1.1-0.5-1.1-1.1V3.8c0-0.6,0.5-1.1,1.1-1.1h12.6c0.6,0,1.1,0.5,1.1,1.1v12.7
	C177.1,17.1,176.6,17.6,175.9,17.6z M141.3,17.6h-12.6c-0.6,0-1.1-0.5-1.1-1.1V3.8c0-0.6,0.5-1.1,1.1-1.1h12.6
	c0.6,0,1.1,0.5,1.1,1.1v12.7C142.4,17.1,141.9,17.6,141.3,17.6z M106.6,17.6H94c-0.6,0-1.1-0.5-1.1-1.1V3.8c0-0.6,0.5-1.1,1.1-1.1
	h12.6c0.6,0,1.1,0.5,1.1,1.1v12.7C107.7,17.1,107.2,17.6,106.6,17.6z"/>
</svg>
