<?xml version="1.0" encoding="utf-8"?>
<!-- Generator: Adobe Illustrator 27.2.0, SVG Export Plug-In . SVG Version: 6.00 Build 0)  -->
<svg version="1.1" id="Vrstva_1" xmlns="http://www.w3.org/2000/svg" xmlns:xlink="http://www.w3.org/1999/xlink" x="0px" y="0px"
	 viewBox="0 0 700 700" style="enable-background:new 0 0 700 700;" xml:space="preserve">
<path d="M241.9,236.2l-23.6-23.6l23.6-23.6l47.2,47.2l-23.6,23.6L241.9,236.2z M407,118.2l165.2,165.2l23.6-23.6L430.6,94.6
	L407,118.2z M572.2,330.6l47.2,47.2l23.6-23.6l-70.8-70.8L548.6,307L572.2,330.6z M619.4,425L430.6,613.7L407,590.1l-23.6,23.6
	l47.2,47.2l236-236l-47.2-47.2l-23.6,23.6L619.4,425z M336.3,189l23.6-23.6l-23.6-23.6l23.6-23.6l-23.6-23.6l-47.2,47.2L336.3,189z
	 M194.7,330.6l23.6-23.6l-47.2-47.2l-23.6,23.6L194.7,330.6z M147.5,283.4l-23.6-23.6L76.7,307l23.6,23.6L147.5,283.4z M289.1,141.8
	l-23.6-23.6l-47.2,47.2l23.6,23.6L289.1,141.8z M407,118.2l-23.6-23.6l-23.6,23.6l23.6,23.6L407,118.2z M218.3,212.6L194.7,189
	l-47.2,47.2l23.6,23.6L218.3,212.6z M194.7,519.3l-70.8-70.8l-23.6,23.6l118,118l23.6-23.6L194.7,519.3z M265.5,542.9l-23.6,23.6
	l47.2,47.2l23.6-23.6L265.5,542.9z M336.3,566.5l-23.6,23.6l47.2,47.2l23.6-23.6L336.3,566.5z M171.1,448.6l47.2,47.2l23.6-23.6
	L100.3,330.6l-23.6,23.6l47.2,47.2L100.3,425l23.6,23.6l23.6-23.6L171.1,448.6z"/>
</svg>
