<?xml version="1.0" encoding="utf-8"?>
<!-- Generator: Adobe Illustrator 26.5.0, SVG Export Plug-In . SVG Version: 6.00 Build 0)  -->
<svg version="1.1" id="b" xmlns="http://www.w3.org/2000/svg" xmlns:xlink="http://www.w3.org/1999/xlink" x="0px" y="0px"
	 viewBox="0 0 381.9 100" style="enable-background:new 0 0 381.9 100;" xml:space="preserve">
<g>
	<path d="M349.2,1.3v1.6v1.3h1.3h7.3v1.6V7h1.3h1.6v1.6v1.3h1.3h1.6v1.6v1.3h1.3h1.6v1.6v1.3h1.3h1.6v1.6v1.3h1.3h1.6V20v1.3h1.3
		h1.6v4.4V27h1.3h1.6v7.3v1.3h1.3h1.6v26h-1.6h-1.3v1.3v7.3h-1.6h-1.3v1.3v4.4h-1.6h-1.3v1.3v4.4h-1.6h-1.3v1.3v1.6h-1.6h-1.3v1.3
		v1.6h-1.6h-1.3v1.3v1.6h-1.6h-1.3v1.3V93h-4.4h-1.3v1.3v1.6h-4.4h-1.3v1.3v1.6h-10.1H42.9H32.7v-1.6v-1.3h-1.3H27v-1.6V93h-1.3
		h-4.4v-1.6v-1.3H20h-1.6v-1.6v-1.3h-1.3h-1.6v-1.6v-1.3h-1.3h-1.6v-1.6v-1.3h-1.3H9.9V80v-1.3H8.6H7v-4.4V73H5.7H4.1v-7.3v-1.3H2.9
		H1.3v-26h1.6h1.3v-1.3v-7.3h1.6H7v-1.3v-4.4h1.6h1.3v-1.3v-4.4h1.6h1.3v-1.3v-1.6h1.6h1.3v-1.3v-1.6h1.6h1.3v-1.3V9.9H20h1.3V8.6V7
		h4.4H27V5.7V4.1h4.4h1.3V2.9V1.3h10.1h296.2H349.2 M350.5,0h-11.4H42.9H31.4v2.9h-5.7v2.8H20v2.9h-2.9v2.9h-2.9v2.8h-2.9v2.9H8.6
		v5.7H5.7v5.7H2.9v8.6H0v28.6h2.9v8.6h2.9V80h2.9v2.8h2.9v2.9h2.9v2.8h2.9v2.9H20v2.9h5.7v2.8h5.7v2.9h11.4h296.2h11.4v-2.9h5.7
		v-2.8h5.7v-2.9h2.9v-2.9h2.9v-2.8h2.9v-2.9h2.9v-5.7h2.9v-5.7h2.9v-8.6h2.9V34.3h-2.9v-8.6h-2.9V20h-2.9v-2.9h-2.9v-2.9h-2.9v-2.8
		h-2.9V8.6h-2.9V5.7h-2.9V2.9h-8.6V0L350.5,0z"/>
</g>
<g>
	<g>
		<path d="M39.4,71.2v-2.5h4.9V34.2h-4.9v-2.5h14.8v2.5h-4.9v34.6h14.8v-2.5h2.5v-2.5h2.5v-2.5h2.5v4.9h-2.5v4.9H39.4z"/>
		<path d="M82.7,68.8v-2.5h-2.5v-2.5h-2.5v-4.9h-2.5V44.1h2.5v-4.9h2.5v-2.5h2.5v-2.5h4.9v2.5h-2.5v2.5h-2.5v4.9h-2.5v14.8h2.5v4.9
			h2.5v2.5h2.5v2.5H82.7z M87.6,34.2v-2.5H100v2.5H87.6z M87.6,71.2v-2.5H100v2.5H87.6z M100,68.8v-2.5h2.5v-2.5h2.5v-4.9h2.5V44.1
			h-2.5v-4.9h-2.5v-2.5H100v-2.5h4.9v2.5h2.5v2.5h2.5v4.9h2.5v14.8h-2.5v4.9h-2.5v2.5h-2.5v2.5H100z"/>
		<path d="M127.1,71.2v-7.4h-2.5v-7.4h-2.5V49h-2.5v-7.4h-2.5v-7.4h-4.9v-2.5h34.6v2.5h-7.4v7.4h2.5V49h2.5v7.4h2.5v7.4h2.5v7.4
			h-4.9v-7.4H142v-7.4h-2.5V49H137v-7.4h-2.5v-7.4h-12.4v7.4h2.5V49h2.5v7.4h2.5v7.4h2.5v7.4H127.1z M132.1,63.8v-7.4h2.5v7.4H132.1
			z M134.5,56.4V49h2.5v7.4H134.5z M149.4,63.8v-7.4h2.5v7.4H149.4z M156.8,41.6v-7.4h-4.9v-2.5h12.4v2.5h-4.9v7.4H156.8z
			 M151.8,56.4V49h2.5v7.4H151.8z M154.3,49v-7.4h2.5V49H154.3z"/>
		<path d="M190.1,71.2v-2.5h4.9V34.2h-9.9v2.5h-2.5v2.5h-2.5v2.5h-2.5v-4.9h2.5v-7.4h2.5v2.5h32.1v-2.5h2.5v7.4h-2.5v4.9h-2.5v-7.4
			H200v34.6h4.9v2.5H190.1z"/>
		<path d="M221,71.2v-2.5h4.9V34.2H221v-2.5h27.2v4.9h2.5v4.9h-2.5v-2.5h-2.5v-2.5h-2.5v-2.5h-12.4V49h12.4v-4.9h2.5v12.4h-2.5v-4.9
			h-12.4v17.3h14.8v-2.5h2.5v-2.5h2.5v-2.5h2.5v4.9h-2.5v4.9H221z"/>
		<path d="M264.3,68.8v-2.5h-2.5v-2.5h-2.5v-4.9h-2.5V44.1h2.5v-4.9h2.5v-2.5h2.5v-2.5h4.9v2.5h-2.5v2.5h-2.5v4.9h-2.5v14.8h2.5v4.9
			h2.5v2.5h2.5v2.5H264.3z M289,41.6v-2.5h-2.5v-2.5h-2.5v-2.5h-14.8v-2.5H289v4.9h2.5v4.9H289z M269.2,71.2v-2.5h14.8v-2.5h2.5
			v-2.5h2.5v-2.5h2.5v4.9H289v4.9H269.2z"/>
		<path d="M296.4,71.2v-2.5h4.9V34.2h-4.9v-2.5h14.8v2.5h-4.9V49h17.3V34.2h-4.9v-2.5h14.8v2.5h-4.9v34.6h4.9v2.5h-14.8v-2.5h4.9
			V51.5h-17.3v17.3h4.9v2.5H296.4z"/>
	</g>
</g>
</svg>
